# xmcd
# 
# Track frame offsets:
#     150
#     10168
#     24002
#     38254
#     49986
#     63228
#     76437
#     90142
#     105219
#     123611
#     135548
#     149125
#     160287
#     171779
#     190074
#     202496
#     215296
#     229310
#     242272
#     253651
# 
# Disc length: 3587
# 
# Revision: 0
# Processed by: cddbd v1.5.2PL0 Copyright (c) Steve Scherf et al.
# Submitted via: BonkEnc v1.0.6
# 
DISCID=050e0114
DTITLE=Teodoro and Sampaio - As vintes mais
DYEAR=2002
DGENRE=Sertanejo
TTITLE0=Quem tem... tem medo
TTITLE1=Pinga ne mim
TTITLE2=A gostosona
TTITLE3=Cantaram minha vizinha
TTITLE4=O machão chorou
TTITLE5=Se a casa cair
TTITLE6=Machucado de paixão
TTITLE7=Bão Tamém
TTITLE8=Paixão proibida
TTITLE9=Estrela Caída
TTITLE10=Vestido de sêda
TTITLE11=Cheira Chumbo
TTITLE12=Passe Livre
TTITLE13=Delícias de Amor
TTITLE14=Velho Galã
TTITLE15=Cunhada
TTITLE16=Casaco verde
TTITLE17=Amando Escondido
TTITLE18=Garanhão da madrugada
TTITLE19=Cheirinho de mulher
EXTD=Teodoro and Sampaio - As vintes mais
EXTT0=
EXTT1=
EXTT2=
EXTT3=
EXTT4=
EXTT5=
EXTT6=
EXTT7=
EXTT8=
EXTT9=
EXTT10=
EXTT11=
EXTT12=
EXTT13=
EXTT14=
EXTT15=
EXTT16=
EXTT17=
EXTT18=
EXTT19=
PLAYORDER=
